<mxfile host="app.diagrams.net" modified="2024-01-19T09:27:48.004Z" agent="Mozilla/5.0 (Macintosh; Intel Mac OS X 10_15_7) AppleWebKit/537.36 (KHTML, like Gecko) Chrome/120.0.0.0 Safari/537.36" version="22.1.21" etag="ilOVCGKj1RX8IphgPtir" type="github">
  <diagram name="第 1 页" id="FXYz_p5dsTDJ7-iYVgdi">
    <mxGraphModel>
      <root>
        <mxCell id="0" />
        <mxCell id="1" parent="0" />
      </root>
    </mxGraphModel>
  </diagram>
</mxfile>
